<svg id="a65b098e-474e-4533-815d-530b361b7234" data-name="Layer 1" xmlns="http://www.w3.org/2000/svg" viewBox="0 0 240 234" width="30px">
					<path d="M42.5,0h155A42.464,42.464,0,0,1,240,42.5v149A42.464,42.464,0,0,1,197.5,234H42.5A42.464,42.464,0,0,1,0,191.5V42.5A42.464,42.464,0,0,1,42.5,0Z" transform="translate(0 0)" fill="#470137"/>
					<path d="M22.8,163.8V61.4a1.2,1.2,0,0,1,1-1.3h.1c1.5-.1,3.8-.2,6.7-.2,3-.1,6.4-.1,10.4-.2s8.2-.1,12.7-.1c12.2,0,22.4,2.2,30.4,6.6a43.854,43.854,0,0,1,18.1,18.1c4,7.7,6,16.5,6,26.5a61.83,61.83,0,0,1-3.1,20.5,48.718,48.718,0,0,1-8.6,15.4,52.348,52.348,0,0,1-12.3,10.7,54.857,54.857,0,0,1-14.7,6.3,61.38,61.38,0,0,1-15.4,2H42.8c-4,0-7.8,0-11.2-.1-3.5-.1-6.1-.1-7.8-.2C23.1,165.4,22.8,164.8,22.8,163.8ZM43.9,79.4v66.7c1.1,0,2.1,0,3.1.1.9.1,1.9.1,2.8.2,1,.1,2.1.1,3.3.1a37.415,37.415,0,0,0,13.6-2.3,26.841,26.841,0,0,0,10.5-6.8,30.881,30.881,0,0,0,6.7-11.1,47.573,47.573,0,0,0,2.4-15A39.738,39.738,0,0,0,84,97.2,26.077,26.077,0,0,0,66.9,81a42.185,42.185,0,0,0-13.2-1.9c-2,0-3.7,0-5.1.1-1.4,0-3,.1-4.7.2Z" transform="translate(0 0)" fill="#ff61f6"/>
					<path d="M197.8,165.4H179.1a1.374,1.374,0,0,1-1.2-.4,3.379,3.379,0,0,1-.6-1.2c-1.9-8-3.5-15.2-4.8-21.3-1.3-6.2-2.4-11.4-3.2-15.7s-1.5-7.9-2.1-10.9c-.5-3-1-5.5-1.3-7.6h-.1c-1,4.4-1.9,8.7-2.8,12.8-.8,4.1-1.8,8.3-2.8,12.5s-2.1,8.8-3.4,13.8c-1.2,5-2.6,10.5-4.1,16.4-.2,1.1-.7,1.6-1.6,1.6H132.4a2.232,2.232,0,0,1-1.4-.3,4.129,4.129,0,0,1-.7-1.1L110.8,86.7c-.3-.9.1-1.3,1.2-1.3h18.9c.9,0,1.4.3,1.5,1,2,8.8,3.7,16.4,5,22.8s2.4,11.8,3.1,16.3,1.4,8.2,1.9,11,.9,5.2,1.2,7h.3c.2-1.6.4-3.1.7-4.7q.6-2.85,1.5-7.5c.6-3.1,1.3-6.7,2.2-10.9s1.9-9,3.1-14.6c1.1-5.5,2.7-11.8,4.6-18.9a3.259,3.259,0,0,1,.4-1.3c.1-.2.5-.3,1.1-.3h19.6c.6,0,.9.4,1,1.1,1.7,7.3,3.1,13.7,4.3,19.2q1.65,8.25,3,14.7c.8,4.2,1.5,7.9,1.9,10.9.4,3.1.9,5.6,1.3,7.7a44.617,44.617,0,0,1,.7,5.1h.3c.5-2,.9-4.4,1.3-7.1s.9-5.7,1.6-9.1c.6-3.4,1.3-7.1,2.1-11.2.7-4.1,1.7-8.6,2.8-13.7,1.1-5,2.3-10.5,3.7-16.4.2-.9.6-1.3,1.3-1.3h17.5c.9,0,1.2.5,1,1.4l-21.6,77.1a2.384,2.384,0,0,1-.6,1.1C198.7,165.3,198.3,165.5,197.8,165.4Z" transform="translate(0 0)" fill="#ff61f6"/>
				</svg>
